# xmcd CD database file
#
# Track frame offsets:
#	150
#	27471
#	56873
#	86918
#	110441
#	133947
#	166423
#	189388
#	210951
#	238385
#
# Disc length: 3491 seconds
#
# Revision: 0
# Processed by: cddbd v1.5.1PL2 Copyright (c) Steve Scherf et al.
# Submitted via: CDex 1.51
#
DISCID=920da10a
DTITLE=Richard Whiteman Trio - All Or Nothing At All
DYEAR=2005
DGENRE=Jazz
TTITLE0=Oh, Lady Be Good
TTITLE1=Koalogy
TTITLE2=All Or Nothing At All
TTITLE3=Soultrane
TTITLE4=Sandown Place
TTITLE5=All About The Hank
TTITLE6=Too Close For Comfort
TTITLE7=Bloor West Village
TTITLE8=Moon Song
TTITLE9=In The Still Of The Night
EXTD=YEAR: 2005
EXTT0=
EXTT1=
EXTT2=
EXTT3=
EXTT4=
EXTT5=
EXTT6=
EXTT7=
EXTT8=
EXTT9=
PLAYORDER=
